<?xml version="1.0"?>
<svg width="999.99993" height="266.66666" xmlns="http://www.w3.org/2000/svg" xmlns:svg="http://www.w3.org/2000/svg" version="1.1">
 <metadata id="metadata71">image/svg+xml</metadata>

 <!-- Generated by Pixelmator Pro 2.0.3 -->
 <g class="layer">
  <title>Layer 1</title>
  <path d="m978.89,70.41c-13.92,0 -20.75,6.12 -24.83,9.18c-4.08,3.06 -7.48,6.12 -11.22,6.12c-9.53,0 -16.33,-6.46 -35.38,-6.46c-45.08,0 -81.63,41.88 -81.63,93.54c0,51.66 36.55,93.54 81.63,93.54c45.09,0 81.64,-41.88 81.64,-93.54c-0.01,-18.84 -4.97,-37.25 -14.25,-52.8c-1.57,-4 -2.08,-8.09 -2.08,-16.08c0.01,-11.05 5.33,-19.19 11.22,-23.3c5.89,-4.1 10.89,-5.1 17.01,-5.78c-6.46,-3.06 -13.95,-4.42 -22.11,-4.42zm-71.43,55.44c22.52,-0.04 40.82,21.02 40.82,46.94c0,25.92 -18.28,46.94 -40.82,46.94c-22.54,0 -40.81,-21.02 -40.81,-46.94c0,-25.87 18.3,-46.9 40.81,-46.94zm-362.07,-60.88c-1.36,0 -2.21,6.46 -2.21,15.3c0,8.85 1.7,17.35 3.4,17.35c1.7,0 1.7,-1.02 9.86,-8.16c8.17,-7.15 9.53,-7.15 9.53,-9.19c0,-2.04 -3.07,-3.74 -10.21,-8.84c-7.14,-5.1 -9.01,-6.46 -10.37,-6.46zm143.2,0c-1.37,0 -3.24,1.36 -10.38,6.46c-7.14,5.1 -10.2,6.8 -10.2,8.84c0,2.04 1.36,2.04 9.52,9.19c8.16,7.14 8.16,8.16 9.86,8.16c1.71,0 3.41,-8.5 3.41,-17.35c0,-8.84 -0.85,-15.3 -2.21,-15.3zm-71.6,14.28c-45.08,0 -81.64,41.9 -81.64,93.54c0,51.66 36.55,93.54 81.64,93.54c45.08,0 81.63,-41.88 81.63,-93.54c0,-51.64 -36.56,-93.54 -81.63,-93.54zm0,46.6c22.51,0 40.81,21.07 40.81,46.94c0,25.92 -18.27,46.94 -40.81,46.94c-22.55,0 -40.82,-21.02 -40.82,-46.94c0,-25.87 18.3,-46.94 40.82,-46.94zm85.71,-110.88c-7.82,0 -15.47,9.86 -8.47,19.58l48.61,87.9l0,118.88c0,13.66 11,24.66 24.66,24.66c13.66,0 24.66,-11 24.66,-24.66l0,-118.88l48.61,-87.9c7,-9.72 -0.65,-19.58 -8.47,-19.58l-25.25,0c-3.4,0 -7.48,2.25 -9.11,5.23l-27.07,49.53c-0.69,1.25 -1.89,1.7 -3.2,1.7c-1.32,0 -2.61,-0.45 -3.3,-1.7l-27.32,-49.53c-1.64,-2.97 -5.7,-5.23 -9.1,-5.23l-25.25,0zm-324.32,0c-13.66,0 -24.66,10.99 -24.66,24.66l0,201.7c0,13.66 11,24.66 24.66,24.66c13.66,0 24.66,-11 24.66,-24.66l0,-66.16c0,-6.22 5.01,-11.22 11.23,-11.22l26.53,0c6.21,0 11.22,5 11.22,11.22l0,66.16c0,13.66 11,24.66 24.66,24.66c13.66,0 24.66,-11 24.66,-24.66l0,-201.7c0,-13.67 -11,-24.66 -24.66,-24.66c-13.66,0 -24.66,10.99 -24.66,24.66l0,61.05c0,6.22 -5.01,11.22 -11.22,11.22l-26.53,0c-6.22,0 -11.23,-5 -11.23,-11.22l0,-61.05c0,-13.67 -11,-24.66 -24.66,-24.66zm-88.26,-14.97c-15.08,0 -27.22,12.14 -27.22,27.21c0,15.08 12.14,27.21 27.22,27.21c15.07,0 27.21,-12.13 27.21,-27.21c0,-15.07 -12.14,-27.21 -27.21,-27.21zm-229.43,78.57c-33.07,0 -59.69,26.62 -59.69,59.7l0,103.06c0,13.66 11,24.66 24.66,24.66c13.66,0 24.66,-11 24.66,-24.66l0,-93.71c0,-10.74 8.65,-19.39 19.39,-19.39c10.74,0 19.39,8.65 19.39,19.39l0,93.71c0,13.66 10.99,24.66 24.65,24.66c13.66,0 24.65,-11 24.65,-24.66l0,-93.71c0,-10.74 8.65,-19.39 19.39,-19.39c10.74,0 19.38,8.65 19.39,19.39l0.01,50.34c0.01,38.06 30.64,68.71 68.71,68.71c38.06,0 68.71,-30.65 68.71,-68.71l0,-85.89c0,-13.66 -11,-24.66 -24.66,-24.66c-13.67,0 -24.66,11 -24.66,24.66l0,84.87c0,10.74 -8.65,19.39 -19.39,19.39c-10.74,0 -19.39,-8.65 -19.39,-19.39l-0.01,-58.67c-0.01,-33.08 -26.63,-59.7 -59.7,-59.7c-18.7,0 -35.55,8.43 -46.47,21.9c-1.37,1.69 -3.36,3.27 -6.58,3.27c-3.23,0 -5.21,-1.58 -6.58,-3.27c-10.92,-13.47 -27.77,-21.9 -46.48,-21.9z" display="inline" fill="#ededda" fill-rule="evenodd" id="path969-5-3" stroke-linecap="round" stroke-width="2.18"/>
 </g>
</svg>