<?xml version="1.0" encoding="utf-8"?>
<!DOCTYPE svg PUBLIC "-//W3C//DTD SVG 20010904//EN" "http://www.w3.org/TR/2001/REC-SVG-20010904/DTD/svg10.dtd">
<svg xmlns="http://www.w3.org/2000/svg" xml:space="preserve" xmlns:xlink="http://www.w3.org/1999/xlink" width="1590" height="604" viewBox="0 0 1590 604">
<desc></desc>
<line fill="none" style="stroke:#ffffff; stroke-width:6;" x1="3" y1="0" x2="3" y2="600"/>
<line fill="none" style="stroke:#ffffff; stroke-width:3;" x1="10.5" y1="0" x2="10.5" y2="600"/>
<line fill="none" style="stroke:#ffffff; stroke-width:3;" x1="19.5" y1="0" x2="19.5" y2="600"/>
<line fill="none" style="stroke:#ffffff; stroke-width:3;" x1="34.5" y1="0" x2="34.5" y2="600"/>
<line fill="none" style="stroke:#ffffff; stroke-width:6;" x1="45" y1="0" x2="45" y2="600"/>
<line fill="none" style="stroke:#ffffff; stroke-width:3;" x1="61.5" y1="0" x2="61.5" y2="600"/>
<line fill="none" style="stroke:#ffffff; stroke-width:3;" x1="67.5" y1="0" x2="67.5" y2="600"/>
<line fill="none" style="stroke:#ffffff; stroke-width:12;" x1="81" y1="0" x2="81" y2="600"/>
<line fill="none" style="stroke:#ffffff; stroke-width:3;" x1="91.5" y1="0" x2="91.5" y2="600"/>
<line fill="none" style="stroke:#ffffff; stroke-width:3;" x1="100.5" y1="0" x2="100.5" y2="600"/>
<line fill="none" style="stroke:#ffffff; stroke-width:12;" x1="114" y1="0" x2="114" y2="600"/>
<line fill="none" style="stroke:#ffffff; stroke-width:3;" x1="124.5" y1="0" x2="124.5" y2="600"/>
<line fill="none" style="stroke:#ffffff; stroke-width:3;" x1="133.5" y1="0" x2="133.5" y2="600"/>
<line fill="none" style="stroke:#ffffff; stroke-width:3;" x1="139.5" y1="0" x2="139.5" y2="600"/>
<line fill="none" style="stroke:#ffffff; stroke-width:12;" x1="153" y1="0" x2="153" y2="600"/>
<line fill="none" style="stroke:#ffffff; stroke-width:3;" x1="166.5" y1="0" x2="166.5" y2="600"/>
<line fill="none" style="stroke:#ffffff; stroke-width:12;" x1="177" y1="0" x2="177" y2="600"/>
<line fill="none" style="stroke:#ffffff; stroke-width:3;" x1="190.5" y1="0" x2="190.5" y2="600"/>
<line fill="none" style="stroke:#ffffff; stroke-width:9;" x1="202.5" y1="0" x2="202.5" y2="600"/>
<line fill="none" style="stroke:#ffffff; stroke-width:3;" x1="214.5" y1="0" x2="214.5" y2="600"/>
<line fill="none" style="stroke:#ffffff; stroke-width:6;" x1="225" y1="0" x2="225" y2="600"/>
<line fill="none" style="stroke:#ffffff; stroke-width:3;" x1="232.5" y1="0" x2="232.5" y2="600"/>
<line fill="none" style="stroke:#ffffff; stroke-width:9;" x1="241.5" y1="0" x2="241.5" y2="600"/>
<line fill="none" style="stroke:#ffffff; stroke-width:6;" x1="255" y1="0" x2="255" y2="600"/>
<line fill="none" style="stroke:#ffffff; stroke-width:3;" x1="265.5" y1="0" x2="265.5" y2="600"/>
<line fill="none" style="stroke:#ffffff; stroke-width:9;" x1="274.5" y1="0" x2="274.5" y2="600"/>
<line fill="none" style="stroke:#ffffff; stroke-width:6;" x1="288" y1="0" x2="288" y2="600"/>
<line fill="none" style="stroke:#ffffff; stroke-width:3;" x1="298.5" y1="0" x2="298.5" y2="600"/>
<line fill="none" style="stroke:#ffffff; stroke-width:6;" x1="309" y1="0" x2="309" y2="600"/>
<line fill="none" style="stroke:#ffffff; stroke-width:3;" x1="316.5" y1="0" x2="316.5" y2="600"/>
<line fill="none" style="stroke:#ffffff; stroke-width:3;" x1="331.5" y1="0" x2="331.5" y2="600"/>
<line fill="none" style="stroke:#ffffff; stroke-width:6;" x1="339" y1="0" x2="339" y2="600"/>
<line fill="none" style="stroke:#ffffff; stroke-width:3;" x1="349.5" y1="0" x2="349.5" y2="600"/>
<line fill="none" style="stroke:#ffffff; stroke-width:6;" x1="366" y1="0" x2="366" y2="600"/>
<line fill="none" style="stroke:#ffffff; stroke-width:3;" x1="382.5" y1="0" x2="382.5" y2="600"/>
<line fill="none" style="stroke:#ffffff; stroke-width:3;" x1="388.5" y1="0" x2="388.5" y2="600"/>
<line fill="none" style="stroke:#ffffff; stroke-width:3;" x1="397.5" y1="0" x2="397.5" y2="600"/>
<line fill="none" style="stroke:#ffffff; stroke-width:12;" x1="408" y1="0" x2="408" y2="600"/>
<line fill="none" style="stroke:#ffffff; stroke-width:3;" x1="421.5" y1="0" x2="421.5" y2="600"/>
<line fill="none" style="stroke:#ffffff; stroke-width:3;" x1="430.5" y1="0" x2="430.5" y2="600"/>
<line fill="none" style="stroke:#ffffff; stroke-width:6;" x1="441" y1="0" x2="441" y2="600"/>
<line fill="none" style="stroke:#ffffff; stroke-width:3;" x1="457.5" y1="0" x2="457.5" y2="600"/>
<line fill="none" style="stroke:#ffffff; stroke-width:3;" x1="463.5" y1="0" x2="463.5" y2="600"/>
<line fill="none" style="stroke:#ffffff; stroke-width:6;" x1="480" y1="0" x2="480" y2="600"/>
<line fill="none" style="stroke:#ffffff; stroke-width:3;" x1="487.5" y1="0" x2="487.5" y2="600"/>
<line fill="none" style="stroke:#ffffff; stroke-width:6;" x1="498" y1="0" x2="498" y2="600"/>
<line fill="none" style="stroke:#ffffff; stroke-width:3;" x1="514.5" y1="0" x2="514.5" y2="600"/>
<line fill="none" style="stroke:#ffffff; stroke-width:3;" x1="520.5" y1="0" x2="520.5" y2="600"/>
<line fill="none" style="stroke:#ffffff; stroke-width:3;" x1="529.5" y1="0" x2="529.5" y2="600"/>
<line fill="none" style="stroke:#ffffff; stroke-width:6;" x1="540" y1="0" x2="540" y2="600"/>
<line fill="none" style="stroke:#ffffff; stroke-width:9;" x1="550.5" y1="0" x2="550.5" y2="600"/>
<line fill="none" style="stroke:#ffffff; stroke-width:3;" x1="562.5" y1="0" x2="562.5" y2="600"/>
<line fill="none" style="stroke:#ffffff; stroke-width:6;" x1="579" y1="0" x2="579" y2="600"/>
<line fill="none" style="stroke:#ffffff; stroke-width:3;" x1="586.5" y1="0" x2="586.5" y2="600"/>
<line fill="none" style="stroke:#ffffff; stroke-width:12;" x1="600" y1="0" x2="600" y2="600"/>
<line fill="none" style="stroke:#ffffff; stroke-width:9;" x1="613.5" y1="0" x2="613.5" y2="600"/>
<line fill="none" style="stroke:#ffffff; stroke-width:3;" x1="622.5" y1="0" x2="622.5" y2="600"/>
<line fill="none" style="stroke:#ffffff; stroke-width:3;" x1="628.5" y1="0" x2="628.5" y2="600"/>
<line fill="none" style="stroke:#ffffff; stroke-width:3;" x1="634.5" y1="0" x2="634.5" y2="600"/>
<line fill="none" style="stroke:#ffffff; stroke-width:12;" x1="648" y1="0" x2="648" y2="600"/>
<line fill="none" style="stroke:#ffffff; stroke-width:3;" x1="661.5" y1="0" x2="661.5" y2="600"/>
<line fill="none" style="stroke:#ffffff; stroke-width:3;" x1="670.5" y1="0" x2="670.5" y2="600"/>
<line fill="none" style="stroke:#ffffff; stroke-width:6;" x1="678" y1="0" x2="678" y2="600"/>
<line fill="none" style="stroke:#ffffff; stroke-width:3;" x1="694.5" y1="0" x2="694.5" y2="600"/>
<line fill="none" style="stroke:#ffffff; stroke-width:3;" x1="709.5" y1="0" x2="709.5" y2="600"/>
<line fill="none" style="stroke:#ffffff; stroke-width:6;" x1="717" y1="0" x2="717" y2="600"/>
<line fill="none" style="stroke:#ffffff; stroke-width:3;" x1="727.5" y1="0" x2="727.5" y2="600"/>
<line fill="none" style="stroke:#ffffff; stroke-width:12;" x1="741" y1="0" x2="741" y2="600"/>
<line fill="none" style="stroke:#ffffff; stroke-width:3;" x1="751.5" y1="0" x2="751.5" y2="600"/>
<line fill="none" style="stroke:#ffffff; stroke-width:3;" x1="760.5" y1="0" x2="760.5" y2="600"/>
<line fill="none" style="stroke:#ffffff; stroke-width:6;" x1="771" y1="0" x2="771" y2="600"/>
<line fill="none" style="stroke:#ffffff; stroke-width:9;" x1="784.5" y1="0" x2="784.5" y2="600"/>
<line fill="none" style="stroke:#ffffff; stroke-width:3;" x1="793.5" y1="0" x2="793.5" y2="600"/>
<line fill="none" style="stroke:#ffffff; stroke-width:6;" x1="801" y1="0" x2="801" y2="600"/>
<line fill="none" style="stroke:#ffffff; stroke-width:3;" x1="817.5" y1="0" x2="817.5" y2="600"/>
<line fill="none" style="stroke:#ffffff; stroke-width:3;" x1="826.5" y1="0" x2="826.5" y2="600"/>
<line fill="none" style="stroke:#ffffff; stroke-width:3;" x1="835.5" y1="0" x2="835.5" y2="600"/>
<line fill="none" style="stroke:#ffffff; stroke-width:6;" x1="843" y1="0" x2="843" y2="600"/>
<line fill="none" style="stroke:#ffffff; stroke-width:6;" x1="861" y1="0" x2="861" y2="600"/>
<line fill="none" style="stroke:#ffffff; stroke-width:3;" x1="877.5" y1="0" x2="877.5" y2="600"/>
<line fill="none" style="stroke:#ffffff; stroke-width:3;" x1="883.5" y1="0" x2="883.5" y2="600"/>
<line fill="none" style="stroke:#ffffff; stroke-width:3;" x1="892.5" y1="0" x2="892.5" y2="600"/>
<line fill="none" style="stroke:#ffffff; stroke-width:3;" x1="907.5" y1="0" x2="907.5" y2="600"/>
<line fill="none" style="stroke:#ffffff; stroke-width:6;" x1="918" y1="0" x2="918" y2="600"/>
<line fill="none" style="stroke:#ffffff; stroke-width:3;" x1="925.5" y1="0" x2="925.5" y2="600"/>
<line fill="none" style="stroke:#ffffff; stroke-width:12;" x1="942" y1="0" x2="942" y2="600"/>
<line fill="none" style="stroke:#ffffff; stroke-width:3;" x1="952.5" y1="0" x2="952.5" y2="600"/>
<line fill="none" style="stroke:#ffffff; stroke-width:12;" x1="963" y1="0" x2="963" y2="600"/>
<line fill="none" style="stroke:#ffffff; stroke-width:9;" x1="976.5" y1="0" x2="976.5" y2="600"/>
<line fill="none" style="stroke:#ffffff; stroke-width:3;" x1="985.5" y1="0" x2="985.5" y2="600"/>
<line fill="none" style="stroke:#ffffff; stroke-width:3;" x1="991.5" y1="0" x2="991.5" y2="600"/>
<line fill="none" style="stroke:#ffffff; stroke-width:6;" x1="1002" y1="0" x2="1002" y2="600"/>
<line fill="none" style="stroke:#ffffff; stroke-width:9;" x1="1015.5" y1="0" x2="1015.5" y2="600"/>
<line fill="none" style="stroke:#ffffff; stroke-width:3;" x1="1024.5" y1="0" x2="1024.5" y2="600"/>
<line fill="none" style="stroke:#ffffff; stroke-width:3;" x1="1039.5" y1="0" x2="1039.5" y2="600"/>
<line fill="none" style="stroke:#ffffff; stroke-width:6;" x1="1047" y1="0" x2="1047" y2="600"/>
<line fill="none" style="stroke:#ffffff; stroke-width:3;" x1="1057.5" y1="0" x2="1057.5" y2="600"/>
<line fill="none" style="stroke:#ffffff; stroke-width:12;" x1="1074" y1="0" x2="1074" y2="600"/>
<line fill="none" style="stroke:#ffffff; stroke-width:3;" x1="1084.5" y1="0" x2="1084.5" y2="600"/>
<line fill="none" style="stroke:#ffffff; stroke-width:12;" x1="1095" y1="0" x2="1095" y2="600"/>
<line fill="none" style="stroke:#ffffff; stroke-width:9;" x1="1108.5" y1="0" x2="1108.5" y2="600"/>
<line fill="none" style="stroke:#ffffff; stroke-width:3;" x1="1117.5" y1="0" x2="1117.5" y2="600"/>
<line fill="none" style="stroke:#ffffff; stroke-width:3;" x1="1123.5" y1="0" x2="1123.5" y2="600"/>
<line fill="none" style="stroke:#ffffff; stroke-width:9;" x1="1132.5" y1="0" x2="1132.5" y2="600"/>
<line fill="none" style="stroke:#ffffff; stroke-width:6;" x1="1146" y1="0" x2="1146" y2="600"/>
<line fill="none" style="stroke:#ffffff; stroke-width:12;" x1="1161" y1="0" x2="1161" y2="600"/>
<line fill="none" style="stroke:#ffffff; stroke-width:3;" x1="1174.5" y1="0" x2="1174.5" y2="600"/>
<line fill="none" style="stroke:#ffffff; stroke-width:3;" x1="1180.5" y1="0" x2="1180.5" y2="600"/>
<line fill="none" style="stroke:#ffffff; stroke-width:3;" x1="1189.5" y1="0" x2="1189.5" y2="600"/>
<line fill="none" style="stroke:#ffffff; stroke-width:6;" x1="1206" y1="0" x2="1206" y2="600"/>
<line fill="none" style="stroke:#ffffff; stroke-width:3;" x1="1213.5" y1="0" x2="1213.5" y2="600"/>
<line fill="none" style="stroke:#ffffff; stroke-width:6;" x1="1224" y1="0" x2="1224" y2="600"/>
<line fill="none" style="stroke:#ffffff; stroke-width:3;" x1="1240.5" y1="0" x2="1240.5" y2="600"/>
<line fill="none" style="stroke:#ffffff; stroke-width:3;" x1="1249.5" y1="0" x2="1249.5" y2="600"/>
<line fill="none" style="stroke:#ffffff; stroke-width:3;" x1="1255.5" y1="0" x2="1255.5" y2="600"/>
<line fill="none" style="stroke:#ffffff; stroke-width:6;" x1="1272" y1="0" x2="1272" y2="600"/>
<line fill="none" style="stroke:#ffffff; stroke-width:3;" x1="1279.5" y1="0" x2="1279.5" y2="600"/>
<line fill="none" style="stroke:#ffffff; stroke-width:3;" x1="1288.5" y1="0" x2="1288.5" y2="600"/>
<line fill="none" style="stroke:#ffffff; stroke-width:9;" x1="1297.5" y1="0" x2="1297.5" y2="600"/>
<line fill="none" style="stroke:#ffffff; stroke-width:6;" x1="1311" y1="0" x2="1311" y2="600"/>
<line fill="none" style="stroke:#ffffff; stroke-width:9;" x1="1324.5" y1="0" x2="1324.5" y2="600"/>
<line fill="none" style="stroke:#ffffff; stroke-width:6;" x1="1335" y1="0" x2="1335" y2="600"/>
<line fill="none" style="stroke:#ffffff; stroke-width:3;" x1="1342.5" y1="0" x2="1342.5" y2="600"/>
<line fill="none" style="stroke:#ffffff; stroke-width:3;" x1="1354.5" y1="0" x2="1354.5" y2="600"/>
<line fill="none" style="stroke:#ffffff; stroke-width:3;" x1="1363.5" y1="0" x2="1363.5" y2="600"/>
<line fill="none" style="stroke:#ffffff; stroke-width:6;" x1="1371" y1="0" x2="1371" y2="600"/>
<line fill="none" style="stroke:#ffffff; stroke-width:6;" x1="1389" y1="0" x2="1389" y2="600"/>
<line fill="none" style="stroke:#ffffff; stroke-width:3;" x1="1405.5" y1="0" x2="1405.5" y2="600"/>
<line fill="none" style="stroke:#ffffff; stroke-width:3;" x1="1411.5" y1="0" x2="1411.5" y2="600"/>
<line fill="none" style="stroke:#ffffff; stroke-width:3;" x1="1420.5" y1="0" x2="1420.5" y2="600"/>
<line fill="none" style="stroke:#ffffff; stroke-width:6;" x1="1428" y1="0" x2="1428" y2="600"/>
<line fill="none" style="stroke:#ffffff; stroke-width:3;" x1="1444.5" y1="0" x2="1444.5" y2="600"/>
<line fill="none" style="stroke:#ffffff; stroke-width:3;" x1="1453.5" y1="0" x2="1453.5" y2="600"/>
<line fill="none" style="stroke:#ffffff; stroke-width:6;" x1="1461" y1="0" x2="1461" y2="600"/>
<line fill="none" style="stroke:#ffffff; stroke-width:3;" x1="1471.5" y1="0" x2="1471.5" y2="600"/>
<line fill="none" style="stroke:#ffffff; stroke-width:3;" x1="1486.5" y1="0" x2="1486.5" y2="600"/>
<line fill="none" style="stroke:#ffffff; stroke-width:6;" x1="1503" y1="0" x2="1503" y2="600"/>
<line fill="none" style="stroke:#ffffff; stroke-width:3;" x1="1510.5" y1="0" x2="1510.5" y2="600"/>
<line fill="none" style="stroke:#ffffff; stroke-width:6;" x1="1521" y1="0" x2="1521" y2="600"/>
<line fill="none" style="stroke:#ffffff; stroke-width:3;" x1="1537.5" y1="0" x2="1537.5" y2="600"/>
<line fill="none" style="stroke:#ffffff; stroke-width:3;" x1="1546.5" y1="0" x2="1546.5" y2="600"/>
<line fill="none" style="stroke:#ffffff; stroke-width:6;" x1="1554" y1="0" x2="1554" y2="600"/>
<line fill="none" style="stroke:#ffffff; stroke-width:9;" x1="1570.5" y1="0" x2="1570.5" y2="600"/>
<line fill="none" style="stroke:#ffffff; stroke-width:3;" x1="1579.5" y1="0" x2="1579.5" y2="600"/>
<line fill="none" style="stroke:#ffffff; stroke-width:6;" x1="1587" y1="0" x2="1587" y2="600"/>
</svg>